# Blender v2.92.0 OBJ File: ''
# www.blender.org
mtllib flask_1.mtl
o 24_Цилиндр.003
v -2.205467 -1.046350 0.551441
v -2.255333 -0.589684 0.474473
v -2.343070 -1.046350 0.576792
v -2.323906 -0.589684 0.487107
v -2.458296 -1.046350 0.497417
v -2.381328 -0.589684 0.447551
v -2.483646 -1.046350 0.359814
v -2.393962 -0.589684 0.378978
v -2.404272 -1.046350 0.244588
v -2.354406 -0.589684 0.321556
v -2.266669 -1.046350 0.219238
v -2.285833 -0.589684 0.308922
v -2.151443 -1.046350 0.298612
v -2.228411 -0.589684 0.348478
v -2.126092 -1.046350 0.436215
v -2.215777 -0.589684 0.417051
v -2.358701 -0.647097 0.649947
v -2.164791 -0.647097 0.614222
v -2.521077 -0.647097 0.538093
v -2.556802 -0.647097 0.344183
v -2.444948 -0.647097 0.181807
v -2.251038 -0.647097 0.146082
v -2.088662 -0.647097 0.257936
v -2.052937 -0.647097 0.451846
v -2.269717 -0.433043 0.452272
v -2.318378 -0.433043 0.461237
v -2.359126 -0.433043 0.433167
v -2.368091 -0.433043 0.384506
v -2.340022 -0.433043 0.343758
v -2.291360 -0.433043 0.334793
v -2.250612 -0.433043 0.362862
v -2.241647 -0.433043 0.411523
v -2.257234 -0.433043 0.471539
v -2.323176 -0.433043 0.483688
v -2.378394 -0.433043 0.445650
v -2.390543 -0.433043 0.379708
v -2.352505 -0.433043 0.324490
v -2.286563 -0.433043 0.312341
v -2.231344 -0.433043 0.350379
v -2.219196 -0.433043 0.416321
v -2.280204 -0.376261 0.436085
v -2.314348 -0.376261 0.442375
v -2.342939 -0.376261 0.422680
v -2.349230 -0.376261 0.388536
v -2.329535 -0.376261 0.359945
v -2.295391 -0.376261 0.353654
v -2.266799 -0.376261 0.373350
v -2.260509 -0.376261 0.407493
v -2.323176 -0.376261 0.483688
v -2.257234 -0.376261 0.471539
v -2.378394 -0.376261 0.445650
v -2.390543 -0.376261 0.379708
v -2.352505 -0.376261 0.324490
v -2.286563 -0.376261 0.312341
v -2.231344 -0.376261 0.350379
v -2.219196 -0.376261 0.416321
v -2.270112 -0.635191 0.451663
v -2.318227 -0.635191 0.460527
v -2.358518 -0.635191 0.432772
v -2.367382 -0.635191 0.384657
v -2.339628 -0.635191 0.344366
v -2.291512 -0.635191 0.335502
v -2.251221 -0.635191 0.363257
v -2.242357 -0.635191 0.411372
v -2.200907 -0.692604 0.558479
v -2.344822 -0.692604 0.584993
v -2.465334 -0.692604 0.501977
v -2.491848 -0.692604 0.358062
v -2.408832 -0.692604 0.237550
v -2.264917 -0.692604 0.211036
v -2.144405 -0.692604 0.294052
v -2.117891 -0.692604 0.437967
v -2.231095 -1.006244 0.511884
v -2.333221 -1.006244 0.530699
v -2.418739 -1.006244 0.471789
v -2.437554 -1.006244 0.369663
v -2.378644 -1.006244 0.284145
v -2.276518 -1.006244 0.265330
v -2.191000 -1.006244 0.324240
v -2.172185 -1.006244 0.426366
v -2.282049 -0.386622 0.433238
v -2.313639 -0.386622 0.439058
v -2.340093 -0.386622 0.420835
v -2.345913 -0.386622 0.389245
v -2.327690 -0.386622 0.362791
v -2.296099 -0.386622 0.356971
v -2.269646 -0.386622 0.375194
v -2.263826 -0.386622 0.406784
v -2.277004 -0.343451 0.441025
v -2.315578 -0.343451 0.448132
v -2.347880 -0.343451 0.425880
v -2.354986 -0.343451 0.387306
v -2.332735 -0.343451 0.355004
v -2.294161 -0.343451 0.347898
v -2.261859 -0.343451 0.370149
v -2.254752 -0.343451 0.408723
v -2.231095 -1.006244 0.511884
v -2.333221 -1.006244 0.530699
v -2.418739 -1.006244 0.471789
v -2.437554 -1.006244 0.369663
v -2.378644 -1.006244 0.284145
v -2.276518 -1.006244 0.265330
v -2.191000 -1.006244 0.324240
v -2.172185 -1.006244 0.426366
v -2.223434 -0.903064 0.523709
v -2.336165 -0.903064 0.544478
v -2.430564 -0.903064 0.479450
v -2.451333 -0.903064 0.366719
v -2.386305 -0.903064 0.272320
v -2.273574 -0.903064 0.251551
v -2.179175 -0.903064 0.316579
v -2.158406 -0.903064 0.429310
vn 0.1785 -0.1706 0.9690
vn -0.5590 -0.1706 0.8115
vn -0.9690 -0.1706 0.1785
vn -0.8115 -0.1706 -0.5590
vn -0.1785 -0.1706 -0.9690
vn 0.5590 -0.1706 -0.8115
vn 0.9717 0.1542 -0.1790
vn 0.9690 -0.1706 -0.1785
vn 0.8115 -0.1706 0.5590
vn 0.0000 -1.0000 -0.0000
vn 0.0633 0.9369 0.3439
vn -0.1983 0.9369 0.2879
vn -0.3439 0.9369 0.0633
vn -0.2879 0.9369 -0.1983
vn -0.0633 0.9369 -0.3439
vn 0.1983 0.9369 -0.2879
vn 0.3439 0.9369 -0.0633
vn 0.2879 0.9369 0.1983
vn -0.1790 0.1542 -0.9717
vn -0.9717 0.1542 0.1790
vn 0.1790 0.1542 0.9717
vn 0.8137 0.1542 0.5605
vn 0.5605 0.1542 -0.8137
vn -0.8137 0.1542 -0.5605
vn -0.5605 0.1542 0.8137
vn 0.8235 0.0000 0.5673
vn -0.9813 -0.0661 0.1808
vn 0.5673 0.0000 -0.8235
vn -0.8235 0.0000 -0.5673
vn -0.5673 0.0000 0.8235
vn 0.9834 0.0000 -0.1812
vn -0.1812 0.0000 -0.9834
vn -0.9834 0.0000 0.1812
vn 0.1812 0.0000 0.9834
vn 0.0000 1.0000 0.0000
vn -0.2489 -0.8986 0.3613
vn 0.1808 -0.0661 0.9813
vn 0.9813 -0.0661 -0.1808
vn -0.1808 -0.0661 -0.9813
vn -0.8217 -0.0661 -0.5660
vn -0.5660 -0.0661 0.8217
vn 0.8217 -0.0661 0.5660
vn 0.5660 -0.0661 -0.8217
vn -0.1788 0.1614 -0.9706
vn 0.3613 -0.8986 0.2489
vn 0.2489 -0.8986 -0.3613
vn -0.4315 -0.8986 0.0795
vn 0.0795 -0.8986 0.4315
vn 0.4315 -0.8986 -0.0795
vn -0.0795 -0.8986 -0.4315
vn -0.3613 -0.8986 -0.2489
vn -0.8127 0.1614 -0.5599
vn -0.5599 0.1614 0.8127
vn 0.8127 0.1614 0.5599
vn 0.5598 0.1614 -0.8127
vn -0.9706 0.1614 0.1788
vn 0.1788 0.1614 0.9706
vn 0.9706 0.1614 -0.1788
vn -0.5564 -0.1948 0.8077
vn 0.9646 -0.1948 -0.1777
vn -0.1777 -0.1948 -0.9646
vn -0.9646 -0.1948 0.1777
vn 0.1777 -0.1948 0.9646
vn 0.8077 -0.1948 0.5564
vn 0.5564 -0.1948 -0.8077
vn -0.8077 -0.1948 -0.5564
vn 0.9757 -0.1252 -0.1798
vn -0.1798 -0.1252 -0.9757
vn -0.9757 -0.1252 0.1798
vn 0.1798 -0.1252 0.9757
vn 0.8170 -0.1252 0.5628
vn 0.5628 -0.1252 -0.8170
vn -0.8170 -0.1252 -0.5628
vn -0.5628 -0.1252 0.8170
usemtl Glass
s off
f 1//1 18//1 17//1 3//1
f 3//2 17//2 19//2 5//2
f 5//3 19//3 20//3 7//3
f 7//4 20//4 21//4 9//4
f 9//5 21//5 22//5 11//5
f 11//6 22//6 23//6 13//6
f 16//7 14//7 31//7 32//7
f 13//8 23//8 24//8 15//8
f 15//9 24//9 18//9 1//9
f 1//10 3//10 5//10 7//10 9//10 11//10 13//10 15//10
f 2//11 4//11 17//11 18//11
f 4//12 6//12 19//12 17//12
f 6//13 8//13 20//13 19//13
f 8//14 10//14 21//14 20//14
f 10//15 12//15 22//15 21//15
f 12//16 14//16 23//16 22//16
f 14//17 16//17 24//17 23//17
f 16//18 2//18 18//18 24//18
f 29//10 28//10 36//10 37//10
f 12//19 10//19 29//19 30//19
f 8//20 6//20 27//20 28//20
f 4//21 2//21 25//21 26//21
f 2//22 16//22 32//22 25//22
f 14//23 12//23 30//23 31//23
f 10//24 8//24 28//24 29//24
f 6//25 4//25 26//25 27//25
f 33//26 40//26 56//26 50//26
f 27//10 26//10 34//10 35//10
f 32//10 31//10 39//10 40//10
f 30//10 29//10 37//10 38//10
f 28//10 27//10 35//10 36//10
f 26//10 25//10 33//10 34//10
f 25//10 32//10 40//10 33//10
f 31//10 30//10 38//10 39//10
f 48//27 47//27 63//27 64//27
f 39//28 38//28 54//28 55//28
f 37//29 36//29 52//29 53//29
f 35//30 34//30 49//30 51//30
f 40//31 39//31 55//31 56//31
f 38//32 37//32 53//32 54//32
f 36//33 35//33 51//33 52//33
f 34//34 33//34 50//34 49//34
f 41//35 42//35 49//35 50//35
f 42//35 43//35 51//35 49//35
f 43//35 44//35 52//35 51//35
f 44//35 45//35 53//35 52//35
f 45//35 46//35 54//35 53//35
f 46//35 47//35 55//35 54//35
f 47//35 48//35 56//35 55//35
f 48//35 41//35 50//35 56//35
f 63//36 62//36 70//36 71//36
f 46//37 45//37 61//37 62//37
f 44//38 43//38 59//38 60//38
f 42//39 41//39 57//39 58//39
f 41//40 48//40 64//40 57//40
f 47//41 46//41 62//41 63//41
f 45//42 44//42 60//42 61//42
f 43//43 42//43 58//43 59//43
f 66//44 65//44 73//44 74//44
f 61//45 60//45 68//45 69//45
f 59//46 58//46 66//46 67//46
f 64//47 63//47 71//47 72//47
f 62//48 61//48 69//48 70//48
f 60//49 59//49 67//49 68//49
f 58//50 57//50 65//50 66//50
f 57//51 64//51 72//51 65//51
f 74//35 73//35 80//35 79//35 78//35 77//35 76//35 75//35
f 65//52 72//52 80//52 73//52
f 71//53 70//53 78//53 79//53
f 69//54 68//54 76//54 77//54
f 67//55 66//55 74//55 75//55
f 72//56 71//56 79//56 80//56
f 70//57 69//57 77//57 78//57
f 68//58 67//58 75//58 76//58
usemtl Wood
f 82//10 83//10 84//10 85//10 86//10 87//10 88//10 81//10
f 90//35 89//35 96//35 95//35 94//35 93//35 92//35 91//35
f 83//59 82//59 90//59 91//59
f 88//60 87//60 95//60 96//60
f 86//61 85//61 93//61 94//61
f 84//62 83//62 91//62 92//62
f 82//63 81//63 89//63 90//63
f 81//64 88//64 96//64 89//64
f 87//65 86//65 94//65 95//65
f 85//66 84//66 92//66 93//66
usemtl Water_9
f 98//10 99//10 100//10 101//10 102//10 103//10 104//10 97//10
f 106//35 105//35 112//35 111//35 110//35 109//35 108//35 107//35
f 104//67 103//67 111//67 112//67
f 102//68 101//68 109//68 110//68
f 100//69 99//69 107//69 108//69
f 98//70 97//70 105//70 106//70
f 97//71 104//71 112//71 105//71
f 103//72 102//72 110//72 111//72
f 101//73 100//73 108//73 109//73
f 99//74 98//74 106//74 107//74
