# Blender v2.92.0 OBJ File: ''
# www.blender.org
mtllib flask_4.mtl
o 4_Куб.003
v 1.547096 -1.052956 0.807376
v 1.388791 -0.495016 0.605760
v 1.051787 -1.052956 0.747773
v 1.253403 -0.495016 0.589468
v 1.606699 -1.052956 0.312067
v 1.405083 -0.495016 0.470372
v 1.111390 -1.052956 0.252465
v 1.269695 -0.495016 0.454081
v 1.507822 -0.598926 0.757357
v 1.101807 -0.598926 0.708499
v 1.150664 -0.598926 0.302484
v 1.556679 -0.598926 0.351342
v 1.387619 -0.407675 0.604267
v 1.254896 -0.407675 0.588296
v 1.270867 -0.407675 0.455573
v 1.403590 -0.407675 0.471545
v 1.394784 -0.407675 0.613392
v 1.245771 -0.407675 0.595461
v 1.263702 -0.407675 0.446448
v 1.412715 -0.407675 0.464380
v 1.363069 -0.339227 0.573001
v 1.286162 -0.339227 0.563747
v 1.295417 -0.339227 0.486839
v 1.372324 -0.339227 0.496094
v 1.394784 -0.339227 0.613392
v 1.245771 -0.339227 0.595461
v 1.263702 -0.339227 0.446448
v 1.412715 -0.339227 0.464380
v 1.363749 -0.526419 0.573866
v 1.285297 -0.526419 0.564426
v 1.294737 -0.526419 0.485974
v 1.373189 -0.526419 0.495415
v 1.446038 -0.630329 0.678669
v 1.180494 -0.630329 0.646715
v 1.212448 -0.630329 0.381171
v 1.477992 -0.630329 0.413125
v 1.478177 -0.980410 0.719602
v 1.139562 -0.980410 0.678854
v 1.180309 -0.980410 0.340239
v 1.518924 -0.980410 0.380986
v 1.363989 -0.354338 0.574173
v 1.284991 -0.354338 0.564666
v 1.294497 -0.354338 0.485668
v 1.373495 -0.354338 0.495174
v 1.370705 -0.271227 0.582726
v 1.276438 -0.271227 0.571382
v 1.287781 -0.271227 0.477115
v 1.382048 -0.271227 0.488459
v 1.455883 -0.771656 0.691208
v 1.167956 -0.771656 0.656560
v 1.202603 -0.771656 0.368633
v 1.490530 -0.771656 0.403280
v 1.475644 -0.977045 0.716375
v 1.142789 -0.977045 0.676321
v 1.182842 -0.977045 0.343466
v 1.515698 -0.977045 0.383520
vn -0.1189 0.0986 0.9880
vn -0.9880 0.0986 -0.1189
vn 0.1189 0.0986 -0.9880
vn 0.9880 0.0986 0.1189
vn 0.0000 -1.0000 -0.0000
vn 0.1195 0.0154 -0.9927
vn -0.0724 0.7952 0.6020
vn -0.6020 0.7952 -0.0724
vn 0.0724 0.7952 -0.6020
vn 0.6020 0.7952 0.0724
vn -0.1195 0.0154 0.9927
vn 0.9927 0.0154 0.1195
vn -0.9927 0.0154 -0.1195
vn 0.9928 0.0000 0.1195
vn 0.1195 -0.0042 -0.9928
vn -0.9928 0.0000 -0.1195
vn 0.1195 0.0000 -0.9928
vn -0.1195 0.0000 0.9928
vn 0.0000 1.0000 0.0000
vn -0.7355 -0.6717 -0.0885
vn -0.9928 -0.0042 -0.1195
vn 0.9928 -0.0042 0.1195
vn -0.1195 -0.0042 0.9928
vn -0.1188 -0.1045 0.9874
vn 0.7355 -0.6717 0.0885
vn -0.0885 -0.6717 0.7355
vn 0.0885 -0.6717 -0.7355
vn 0.1188 -0.1045 -0.9874
vn -0.9874 -0.1045 -0.1188
vn 0.9874 -0.1045 0.1188
vn -0.9886 -0.0921 -0.1190
vn 0.1190 -0.0921 -0.9886
vn -0.1190 -0.0921 0.9886
vn 0.9886 -0.0921 0.1190
vn 0.1188 0.1095 -0.9869
vn -0.1188 0.1095 0.9869
vn 0.9869 0.1095 0.1188
vn -0.9869 0.1095 -0.1188
usemtl Glass.002
s off
f 1//1 9//1 10//1 3//1
f 3//2 10//2 11//2 7//2
f 7//3 11//3 12//3 5//3
f 5//4 12//4 9//4 1//4
f 3//5 7//5 5//5 1//5
f 6//6 8//6 15//6 16//6
f 2//7 4//7 10//7 9//7
f 4//8 8//8 11//8 10//8
f 8//9 6//9 12//9 11//9
f 6//10 2//10 9//10 12//10
f 16//5 15//5 19//5 20//5
f 4//11 2//11 13//11 14//11
f 2//12 6//12 16//12 13//12
f 8//13 4//13 14//13 15//13
f 17//14 20//14 28//14 25//14
f 14//5 13//5 17//5 18//5
f 13//5 16//5 20//5 17//5
f 15//5 14//5 18//5 19//5
f 22//15 21//15 29//15 30//15
f 19//16 18//16 26//16 27//16
f 20//17 19//17 27//17 28//17
f 18//18 17//18 25//18 26//18
f 21//19 22//19 26//19 25//19
f 22//19 23//19 27//19 26//19
f 23//19 24//19 28//19 27//19
f 24//19 21//19 25//19 28//19
f 29//20 32//20 36//20 33//20
f 21//21 24//21 32//21 29//21
f 23//22 22//22 30//22 31//22
f 24//23 23//23 31//23 32//23
f 36//24 35//24 39//24 40//24
f 31//25 30//25 34//25 35//25
f 32//26 31//26 35//26 36//26
f 30//27 29//27 33//27 34//27
f 39//19 38//19 37//19 40//19
f 34//28 33//28 37//28 38//28
f 33//29 36//29 40//29 37//29
f 35//30 34//30 38//30 39//30
usemtl Wood.002
f 41//5 42//5 43//5 44//5
f 45//19 48//19 47//19 46//19
f 42//31 46//31 47//31 43//31
f 43//32 47//32 48//32 44//32
f 41//33 45//33 46//33 42//33
f 44//34 48//34 45//34 41//34
usemtl Water_2
f 52//35 56//35 55//35 51//35
f 55//5 56//5 53//5 54//5
f 50//36 54//36 53//36 49//36
f 49//37 53//37 56//37 52//37
f 51//38 55//38 54//38 50//38
f 49//19 52//19 51//19 50//19
